<svg viewBox="0 0 800 600" xmlns="http://www.w3.org/2000/svg" class="museum-map">
  <rect x="10" y="10" width="780" height="580" fill="#f0f0f0" stroke="#333" stroke-width="4" />

  <line x1="400" y1="10" x2="400" y2="250" stroke="#333" stroke-width="4" />
  <line x1="400" y1="350" x2="400" y2="590" stroke="#333" stroke-width="4" />

  <line x1="10" y1="300" x2="150" y2="300" stroke="#333" stroke-width="4" />
  <line x1="250" y1="300" x2="550" y2="300" stroke="#333" stroke-width="4" />
  <line x1="650" y1="300" x2="790" y2="300" stroke="#333" stroke-width="4" />

  <line x1="600" y1="10" x2="600" y2="150" stroke="#333" stroke-width="2" />
  <line x1="200" y1="450" x2="200" y2="590" stroke="#333" stroke-width="2" />

  <circle id="art-1" class="interactive-node" cx="80" cy="80" r="10" fill="gray" />
  <circle id="art-2" class="interactive-node" cx="300" cy="80" r="10" fill="gray" />
  <circle id="art-3" class="interactive-node" cx="190" cy="180" r="15" fill="#555" />
  
  <rect id="art-4" class="interactive-node" x="450" y="50" width="30" height="30" fill="gray" />
  <rect id="art-5" class="interactive-node" x="680" y="80" width="20" height="40" fill="gray" />
  <circle id="art-6" class="interactive-node" cx="500" cy="200" r="10" fill="gray" />

  <circle id="art-7" class="interactive-node" cx="100" cy="400" r="12" fill="gray" />
  <circle id="art-8" class="interactive-node" cx="100" cy="500" r="12" fill="gray" />
  <circle id="art-9" class="interactive-node" cx="300" cy="500" r="10" fill="gray" />

  <circle id="art-10" class="interactive-node" cx="480" cy="450" r="10" fill="gray" />
  <circle id="art-11" class="interactive-node" cx="600" cy="450" r="10" fill="gray" />
  <circle id="art-12" class="interactive-node" cx="720" cy="450" r="10" fill="gray" />
  <circle id="art-13" class="interactive-node" cx="750" cy="150" r="10" fill="gray" />
</svg>